<svg width="16" height="16" viewBox="0 0 16 16" fill="none" xmlns="http://www.w3.org/2000/svg">
<path d="M9.06644 2.66655C9.06644 2.07744 8.58888 1.59988 7.99977 1.59988C7.41067 1.59988 6.93311 2.07744 6.93311 2.66655C6.93311 3.25565 7.41067 3.73322 7.99977 3.73322C8.58888 3.73322 9.06644 3.25565 9.06644 2.66655Z" stroke="#97A1B2" stroke-width="1.25"/>
<path d="M9.06644 7.99986C9.06644 7.41076 8.58888 6.93319 7.99977 6.93319C7.41067 6.93319 6.93311 7.41076 6.93311 7.99986C6.93311 8.58897 7.41067 9.06653 7.99977 9.06653C8.58888 9.06653 9.06644 8.58897 9.06644 7.99986Z" stroke="#97A1B2" stroke-width="1.25"/>
<path d="M9.06644 13.3332C9.06644 12.7441 8.58888 12.2666 7.99977 12.2666C7.41067 12.2666 6.93311 12.7441 6.93311 13.3332C6.93311 13.9223 7.41067 14.3999 7.99977 14.3999C8.58888 14.3999 9.06644 13.9223 9.06644 13.3332Z" stroke="#97A1B2" stroke-width="1.25"/>
</svg>
