<svg width="36" height="36" viewBox="0 0 36 36" fill="none" xmlns="http://www.w3.org/2000/svg">
<path d="M19.2322 14.7104C19.4384 14.0916 20.3122 14.0916 20.5184 14.7104L21.7278 18.3423C21.994 19.1406 22.4425 19.866 23.0378 20.461C23.633 21.0559 24.3587 21.504 25.1572 21.7698L28.7872 22.9792C29.406 23.1854 29.406 24.0592 28.7872 24.2654L25.1553 25.4748C24.357 25.741 23.6315 26.1895 23.0366 26.7847C22.4417 27.38 21.9936 28.1056 21.7278 28.9042L20.5184 32.5342C20.474 32.6697 20.3878 32.7877 20.2724 32.8713C20.1569 32.955 20.0179 33 19.8753 33C19.7327 33 19.5938 32.955 19.4783 32.8713C19.3628 32.7877 19.2766 32.6697 19.2322 32.5342L18.0228 28.9023C17.7568 28.1041 17.3086 27.3788 16.7137 26.7839C16.1187 26.189 15.3935 25.7408 14.5953 25.4748L10.9634 24.2654C10.8279 24.2209 10.7099 24.1348 10.6263 24.0193C10.5426 23.9038 10.4976 23.7649 10.4976 23.6223C10.4976 23.4797 10.5426 23.3407 10.6263 23.2252C10.7099 23.1097 10.8279 23.0236 10.9634 22.9792L14.5953 21.7698C15.3935 21.5038 16.1187 21.0555 16.7137 20.4606C17.3086 19.8657 17.7568 19.1404 18.0228 18.3423L19.2322 14.7104ZM11.989 5.1497C12.0159 5.0685 12.0677 4.99784 12.137 4.94776C12.2064 4.89768 12.2897 4.87072 12.3753 4.87072C12.4608 4.87072 12.5442 4.89768 12.6135 4.94776C12.6828 4.99784 12.7346 5.0685 12.7615 5.1497L13.4872 7.32846C13.8115 8.29971 14.5728 9.06097 15.544 9.38534L17.7228 10.111C17.804 10.1379 17.8747 10.1897 17.9247 10.259C17.9748 10.3283 18.0018 10.4117 18.0018 10.4972C18.0018 10.5828 17.9748 10.6661 17.9247 10.7355C17.8747 10.8048 17.804 10.8566 17.7228 10.8835L15.544 11.6091C15.065 11.7687 14.6298 12.0377 14.2727 12.3947C13.9157 12.7517 13.6468 13.187 13.4872 13.666L12.7615 15.8447C12.7346 15.9259 12.6828 15.9966 12.6135 16.0467C12.5442 16.0968 12.4608 16.1237 12.3753 16.1237C12.2897 16.1237 12.2064 16.0968 12.137 16.0467C12.0677 15.9966 12.0159 15.9259 11.989 15.8447L11.2634 13.666C11.1038 13.187 10.8348 12.7517 10.4778 12.3947C10.1208 12.0377 9.68553 11.7687 9.20652 11.6091L7.02776 10.8835C6.94656 10.8566 6.8759 10.8048 6.82582 10.7355C6.77574 10.6661 6.74878 10.5828 6.74878 10.4972C6.74878 10.4117 6.77574 10.3283 6.82582 10.259C6.8759 10.1897 6.94656 10.1379 7.02776 10.111L9.20652 9.38534C9.68553 9.22575 10.1208 8.95679 10.4778 8.59976C10.8348 8.24274 11.1038 7.80748 11.2634 7.32846L11.989 5.1497ZM25.2435 3.18282C25.262 3.12943 25.2967 3.08314 25.3427 3.05037C25.3887 3.01761 25.4438 3 25.5003 3C25.5568 3 25.6119 3.01761 25.658 3.05037C25.704 3.08314 25.7387 3.12943 25.7572 3.18282L26.241 4.63407C26.4566 5.28283 26.9647 5.79095 27.6135 6.00658L29.0647 6.49033C29.1181 6.50884 29.1644 6.54353 29.1972 6.58956C29.2299 6.6356 29.2475 6.6907 29.2475 6.74721C29.2475 6.80371 29.2299 6.85882 29.1972 6.90485C29.1644 6.95089 29.1181 6.98557 29.0647 7.00408L27.6135 7.48784C27.2938 7.59419 27.0032 7.77362 26.765 8.01187C26.5267 8.25012 26.3473 8.54063 26.241 8.86034L25.7572 10.3116C25.7387 10.365 25.704 10.4113 25.658 10.444C25.6119 10.4768 25.5568 10.4944 25.5003 10.4944C25.4438 10.4944 25.3887 10.4768 25.3427 10.444C25.2967 10.4113 25.262 10.365 25.2435 10.3116L24.7597 8.86034C24.6533 8.54063 24.4739 8.25012 24.2357 8.01187C23.9974 7.77362 23.7069 7.59419 23.3872 7.48784L21.9378 7.00408C21.8844 6.98557 21.8381 6.95089 21.8054 6.90485C21.7726 6.85882 21.755 6.80371 21.755 6.74721C21.755 6.6907 21.7726 6.6356 21.8054 6.58956C21.8381 6.54353 21.8844 6.50884 21.9378 6.49033L23.3891 6.00658C24.0378 5.79095 24.546 5.28283 24.7616 4.63407L25.2435 3.18469V3.18282Z" fill="url(#paint0_linear_3001_11392)"/>
<defs>
<linearGradient id="paint0_linear_3001_11392" x1="23.5" y1="33" x2="4" y2="7" gradientUnits="userSpaceOnUse">
<stop stop-color="#8F69FF"/>
<stop offset="1" stop-color="#F495FF"/>
</linearGradient>
</defs>
</svg>
